<?xml version="1.0" encoding="UTF-8"?><svg id="uuid-346a5251-52a6-40ee-9322-1d973400bed6" xmlns="http://www.w3.org/2000/svg" viewBox="0 0 2967.95 684.67"><polygon points="422.99 156.55 289.72 151.19 305.94 172.22 150.82 291.83 150.56 0 31.82 .1 32.28 533.19 378.44 266.26 394.63 287.25 422.99 156.55" style="fill:#1e2037;"/><polygon points="225.16 428.19 44.32 568.49 28.36 547.79 0 678.48 133.27 683.84 116.84 662.54 195.74 601.32 236.13 663.72 377.51 663.59 225.16 428.19" style="fill:#004ac8;"/><path d="M957.89,659.43V2h134.94v657.43h-134.94Z" style="fill:#004ac8;"/><path d="M1308.67,98.22c0,40.08-32.62,72.7-72.7,72.7s-72.7-32.62-72.7-72.7,32.62-72.7,72.7-72.7,72.7,32.62,72.7,72.7Z" style="fill:#004ac8;"/><path d="M1235.97,25.52c-40.08,0-72.7,32.62-72.7,72.7s32.62,72.7,72.7,72.7,72.7-32.62,72.7-72.7-32.62-72.7-72.7-72.7ZM1232.86,98.22c0-1.86,1.24-3.11,3.11-3.11s3.42,1.24,3.42,3.11c0,3.42-6.52,3.42-6.52,0Z" style="fill:#004ac8;"/><path d="M1235.97,236.46c-23.38,0-45.61-4.6-66.31-13.03v436h134.93V222.66c-21.08,8.82-44.47,13.8-68.61,13.8Z" style="fill:#004ac8;"/><path d="M746.24,233.59v42.35c-37.52-30.19-85.14-48.35-137.05-48.35-120.9,0-218.91,98.01-218.91,218.91s98.01,218.91,218.91,218.91c51.91,0,99.53-18.16,137.05-48.35v42.35h134.94V233.59h-134.94ZM629.28,556.5c-62.37,0-112.94-50.57-112.94-112.94s50.57-112.94,112.94-112.94,112.94,50.57,112.94,112.94-50.57,112.94-112.94,112.94Z" style="fill:#004ac8;"/><path d="M2014.45,213.35c-128.08,0-232.15,104.06-232.15,231.35s104.06,232.15,232.15,232.15,231.35-104.07,231.35-232.15-103.27-231.35-231.35-231.35ZM2014.45,558.37c-62.44,0-112.87-51.23-112.87-113.67s50.43-112.87,112.87-112.87,112.87,51.23,112.87,112.87-50.43,113.67-112.87,113.67Z" style="fill:#1e2037;"/><path d="M1782.3,569.57l4,2.4c-41.62,63.24-112.87,104.87-193.72,104.87-128.08,0-231.35-104.07-231.35-232.15s103.27-231.35,231.35-231.35c81.65,0,152.9,42.43,194.52,106.47l-100.86,63.24c-20.01-31.22-54.43-51.23-93.66-51.23-62.44,0-112.87,51.23-112.87,112.87s50.43,113.67,112.87,113.67c38.43,0,72.85-20.01,92.86-49.63l96.86,60.84Z" style="fill:#1e2037;"/><path d="M2965.44,392.66v101.76h-132.89v-83.35c0-39.22-32.82-72.05-72.04-72.05s-72.05,32.82-72.05,72.05v83.35h-133.68v-83.35c0-39.22-32.02-72.05-72.05-72.05s-72.04,32.82-72.04,72.05v83.35h-131.28V233.36h131.53l-.24,15.78v8.32s29.24-36.91,95.72-36.91c72.42,0,117.21,44.03,117.21,44.03,36.02-28.02,94-44.03,142.83-44.03,104.06,0,198.99,88.02,198.99,172.11Z" style="fill:#1e2037;"/><path d="M2375.52,625.25c0,30.65-20.57,49.93-42.45,49.93-8.98,0-20.57-3.86-26.92-12.99v10.55h-27.67v-146.33h27.68v61.9c6.35-8.93,17.95-12.79,26.92-12.79,21.88,0,42.44,19.08,42.44,49.72ZM2347.47,625.25c0-11.97-9.35-21.92-20.19-21.92s-20.19,9.74-20.2,21.92c0,12.18,9.53,22.12,20.19,22.12s20.2-10.15,20.2-22.12Z" style="fill:#004ac8;"/><path d="M2444.71,577.96h27.67v94.78h-27.68v-16.24c-2.99,13.19-17.02,18.67-25.06,18.67-23.19,0-34.59-17.05-34.59-46.07v-51.15h27.68v49.32c0,14.61,8.04,20.09,15.14,20.09s16.83-4.26,16.83-20.09v-49.32Z" style="fill:#004ac8;"/><path d="M2483.23,642.1h26.18c0,4.67,3.18,10.15,11.03,10.15,5.8,0,10.66-3.25,10.66-7.71,0-3.04-2.06-4.46-8.6-6.09l-11.41-3.25c-25.62-7.51-26.36-23.34-26.36-31.26,0-14,14.59-28.41,35.71-28.41,16.45,0,36.46,8.32,36.08,32.07h-26.18c0-6.09-3.93-9.13-9.35-9.13-4.67,0-8.6,2.44-8.6,6.49,0,3.65,2.99,5.68,7.48,6.9l15.15,4.46c21.88,6.49,23.74,21.51,23.74,28.01,0,20.9-20.01,30.85-37.59,30.85-19.45,0-37.96-11.57-37.95-33.08Z" style="fill:#004ac8;"/><path d="M2566.26,546.3c0-9.95,7.85-17.45,17.2-17.45s16.83,7.51,16.83,17.45c0,9.54-7.48,17.45-16.83,17.45s-17.2-7.92-17.2-17.45ZM2569.61,672.74v-94.78h27.68v94.78h-27.68Z" style="fill:#004ac8;"/><path d="M2700.32,621.8v50.94h-27.68v-49.12c0-14.61-8.22-20.3-15.14-20.3-7.48,0-16.83,4.26-16.83,20.09v49.32h-27.68v-94.78h27.68v17.05c2.99-13.4,16.83-19.48,25.06-19.48,23.19,0,34.59,17.25,34.59,46.27Z" style="fill:#004ac8;"/><path d="M2802.6,634.18h-63.95c2.62,9.13,9.91,14.82,20.38,14.82,8.23,0,16.64-4.06,22.06-9.74l14.21,19.48c-8.6,10.15-23.56,16.44-38.15,16.44-27.67,0-47.12-20.7-47.12-49.52,0-30.85,21.88-50.13,46.94-50.13s46,19.08,45.99,47.9c0,2.64-.19,6.09-.38,10.76ZM2775.49,616.52c-.37-9.34-8.04-15.63-17.95-15.63-8.23,0-16.27,4.26-19.07,15.63h37.02Z" style="fill:#004ac8;"/><path d="M2808.21,642.1h26.18c0,4.67,3.18,10.15,11.03,10.15,5.8,0,10.66-3.25,10.66-7.71,0-3.04-2.06-4.46-8.6-6.09l-11.41-3.25c-25.62-7.51-26.36-23.34-26.36-31.26,0-14,14.59-28.41,35.71-28.41,16.45,0,36.46,8.32,36.08,32.07h-26.18c0-6.09-3.93-9.13-9.35-9.13-4.67,0-8.6,2.44-8.6,6.49,0,3.65,2.99,5.68,7.48,6.9l15.15,4.46c21.88,6.49,23.74,21.51,23.74,28.01,0,20.9-20.01,30.85-37.59,30.85-19.45,0-37.96-11.57-37.95-33.08Z" style="fill:#004ac8;"/><path d="M2889.74,642.1h26.18c0,4.67,3.18,10.15,11.03,10.15,5.8,0,10.66-3.25,10.66-7.71,0-3.04-2.06-4.46-8.6-6.09l-11.41-3.25c-25.62-7.51-26.36-23.34-26.36-31.26,0-14,14.59-28.41,35.71-28.41,16.45,0,36.46,8.32,36.08,32.07h-26.18c0-6.09-3.93-9.13-9.35-9.13-4.67,0-8.6,2.44-8.6,6.49,0,3.65,2.99,5.68,7.48,6.9l15.15,4.46c21.88,6.49,23.74,21.51,23.74,28.01,0,20.9-20.01,30.85-37.59,30.85-19.45,0-37.96-11.57-37.95-33.08Z" style="fill:#004ac8;"/></svg>